Coordinates
version=1
nRows=41
nColumns=38
inDegrees=no

Units are S.I. units (second, meters, Newtons, ...)
If the header above contains a line with 'inDegrees', this indicates whether rotational values are in degrees (yes) or radians (no).

endheader
time	pelvis_tilt	pelvis_list	pelvis_rotation	pelvis_tx	pelvis_ty	pelvis_tz	hip_flexion_r	hip_adduction_r	hip_rotation_r	knee_angle_r	ankle_angle_r	subtalar_angle_r	mtp_angle_r	hip_flexion_l	hip_adduction_l	hip_rotation_l	knee_angle_l	ankle_angle_l	subtalar_angle_l	mtp_angle_l	lumbar_extension	lumbar_bending	lumbar_rotation	arm_flex_r	arm_add_r	arm_rot_r	elbow_flex_r	pro_sup_r	wrist_flex_r	wrist_dev_r	arm_flex_l	arm_add_l	arm_rot_l	elbow_flex_l	pro_sup_l	wrist_flex_l	wrist_dev_l
23.09	-0.138074	1.3546	-1.35734	0.783769	-0.52342	0.954122	-0.105859	-0.0119872	-0.30477	0.470884	-0.253099	0	0	-0.247065	-0.0827897	0.0213822	0.12529	-0.389383	0	0	-0.631145	0.170693	-0.163155	0.662855	-0.152154	0.15801	0.682912	1.5708	0	0	0.384476	-0.445181	0.238572	0.90923	1.5708	0	0
23.1	-0.135868	1.35522	-1.35988	0.783873	-0.523621	0.954115	-0.105716	-0.0128052	-0.30392	0.470595	-0.252746	0	0	-0.248092	-0.0818122	0.0211773	0.122958	-0.390892	0	0	-0.632528	0.170149	-0.162527	0.674328	-0.148534	0.15838	0.669726	1.5708	0	0	0.39403	-0.442134	0.23587	0.901495	1.5708	0	0
23.11	-0.133981	1.35604	-1.36178	0.78394	-0.523884	0.954079	-0.105499	-0.0134559	-0.303482	0.470124	-0.25268	0	0	-0.249137	-0.0810966	0.021638	0.119587	-0.391823	0	0	-0.633618	0.169694	-0.161918	0.684987	-0.145159	0.1581	0.657311	1.5708	0	0	0.403578	-0.439494	0.233605	0.894134	1.5708	0	0
23.12	-0.132578	1.35704	-1.36294	0.783977	-0.524189	0.954014	-0.105218	-0.0139158	-0.303388	0.469416	-0.252544	0	0	-0.249797	-0.0806761	0.0224338	0.116332	-0.39321	0	0	-0.634503	0.169373	-0.16137	0.694783	-0.142019	0.157446	0.645908	1.5708	0	0	0.41278	-0.437156	0.231775	0.887396	1.5708	0	0
23.13	-0.131709	1.35819	-1.36333	0.784007	-0.524514	0.953946	-0.104883	-0.0141642	-0.303637	0.4685	-0.25251	0	0	-0.250181	-0.0803798	0.0233825	0.113343	-0.395102	0	0	-0.635253	0.169239	-0.160835	0.703678	-0.139081	0.156417	0.635396	1.5708	0	0	0.421601	-0.434962	0.230315	0.881376	1.5708	0	0
23.14	-0.1313	1.35963	-1.36275	0.784035	-0.524876	0.953867	-0.10439	-0.0142034	-0.304301	0.467363	-0.25274	0	0	-0.250301	-0.0803502	0.0244255	0.110206	-0.397223	0	0	-0.635696	0.169402	-0.160576	0.711985	-0.136331	0.154867	0.625606	1.5708	0	0	0.430221	-0.432932	0.229313	0.875427	1.5708	0	0
23.15	-0.130613	1.36085	-1.36253	0.784099	-0.525249	0.953801	-0.104188	-0.0143016	-0.304701	0.466171	-0.252965	0	0	-0.250597	-0.080331	0.0248085	0.107528	-0.399182	0	0	-0.636415	0.16947	-0.160206	0.720255	-0.133829	0.152848	0.61615	1.5708	0	0	0.438861	-0.430985	0.228786	0.869374	1.5708	0	0
23.16	-0.129521	1.36188	-1.3628	0.78423	-0.525644	0.953736	-0.104245	-0.014555	-0.305071	0.464939	-0.253321	0	0	-0.250831	-0.0800551	0.024303	0.105852	-0.400938	0	0	-0.637325	0.16943	-0.159715	0.727819	-0.131987	0.150793	0.607828	1.5708	0	0	0.447397	-0.428977	0.228618	0.863403	1.5708	0	0
23.17	-0.128164	1.3629	-1.36326	0.784372	-0.526053	0.953658	-0.104348	-0.0148857	-0.30539	0.463722	-0.254145	0	0	-0.251206	-0.0797342	0.0240601	0.104119	-0.401591	0	0	-0.638247	0.16939	-0.159205	0.733609	-0.13062	0.149348	0.600668	1.5708	0	0	0.455833	-0.427025	0.228662	0.857487	1.5708	0	0
23.18	-0.126878	1.36391	-1.36366	0.784525	-0.52646	0.953588	-0.104479	-0.0151893	-0.305401	0.462477	-0.255393	0	0	-0.25183	-0.0794452	0.0245763	0.10134	-0.40034	0	0	-0.63945	0.16955	-0.15861	0.738366	-0.129554	0.146713	0.595401	1.5708	0	0	0.464049	-0.425435	0.228881	0.852175	1.5708	0	0
23.19	-0.126522	1.36495	-1.36302	0.784674	-0.526895	0.95353	-0.104626	-0.0152596	-0.305467	0.461155	-0.25738	0	0	-0.251922	-0.0793141	0.0239904	0.100449	-0.40012	0	0	-0.640941	0.17015	-0.158162	0.742485	-0.128892	0.143884	0.592072	1.5708	0	0	0.471498	-0.424463	0.229054	0.848312	1.5708	0	0
23.2	-0.156187	1.35233	-1.32809	0.785227	-0.52714	0.955368	-0.174214	0.0192114	-0.234759	0.255006	-0.413168	0	0	-0.266175	-0.0907755	0.0233688	0.0949779	-0.409913	0	0	-0.656367	0.182247	-0.155965	0.749785	-0.128149	0.139421	0.587199	1.5708	0	0	0.481537	-0.422307	0.228681	0.842862	1.5708	0	0
23.21	-0.12611	1.36683	-1.3606	0.78492	-0.527812	0.953449	-0.105059	-0.0151219	-0.307546	0.459649	-0.250318	0	0	-0.252604	-0.0797804	0.0243265	0.0962113	-0.409264	0	0	-0.642916	0.170866	-0.15578	0.748373	-0.127766	0.131197	0.58191	1.5708	0	0	0.490084	-0.418456	0.22938	0.834143	1.5708	0	0
23.22	-0.12587	1.36772	-1.35943	0.785048	-0.528295	0.953406	-0.105178	-0.0151184	-0.30893	0.459143	-0.249871	0	0	-0.253008	-0.0799893	0.0250806	0.0939652	-0.409054	0	0	-0.644191	0.171284	-0.155146	0.750382	-0.127722	0.128107	0.577708	1.5708	0	0	0.497792	-0.416088	0.228231	0.829189	1.5708	0	0
23.23	-0.125266	1.36855	-1.35895	0.785192	-0.528806	0.953341	-0.105298	-0.0153141	-0.310028	0.45886	-0.249281	0	0	-0.25379	-0.079931	0.025779	0.0913754	-0.408604	0	0	-0.645487	0.171703	-0.154558	0.752624	-0.12733	0.125033	0.574266	1.5708	0	0	0.504986	-0.414083	0.227295	0.824603	1.5708	0	0
23.24	-0.12496	1.36952	-1.35831	0.785358	-0.529344	0.953243	-0.105182	-0.0155601	-0.31096	0.458816	-0.248638	0	0	-0.254759	-0.0796513	0.0270963	0.088331	-0.408247	0	0	-0.646467	0.172274	-0.154379	0.755319	-0.126264	0.12281	0.57162	1.5708	0	0	0.51138	-0.412531	0.22658	0.820547	1.5708	0	0
23.25	-0.125263	1.37061	-1.35696	0.785571	-0.529877	0.953146	-0.104916	-0.0157272	-0.311832	0.458711	-0.248122	0	0	-0.255699	-0.07952	0.0289027	0.0846927	-0.407164	0	0	-0.647005	0.173049	-0.154909	0.758744	-0.12422	0.121348	0.568985	1.5708	0	0	0.516915	-0.411021	0.225497	0.816529	1.5708	0	0
23.26	-0.125682	1.37157	-1.35543	0.78588	-0.530371	0.95307	-0.104792	-0.0160179	-0.312734	0.458472	-0.247824	0	0	-0.256252	-0.0793771	0.0304232	0.0819492	-0.405615	0	0	-0.647432	0.17412	-0.155933	0.76277	-0.121756	0.120531	0.566607	1.5708	0	0	0.522032	-0.40957	0.224291	0.812332	1.5708	0	0
23.27	-0.126402	1.37253	-1.35364	0.786156	-0.530934	0.952998	-0.105091	-0.0159475	-0.313241	0.45734	-0.247321	0	0	-0.256419	-0.0792786	0.0306787	0.0808535	-0.40431	0	0	-0.647687	0.175139	-0.156934	0.767285	-0.119688	0.120747	0.564224	1.5708	0	0	0.526866	-0.408379	0.223295	0.807972	1.5708	0	0
23.28	-0.126461	1.37364	-1.35283	0.786329	-0.531576	0.952869	-0.104371	-0.0168722	-0.315552	0.45872	-0.246115	0	0	-0.256546	-0.0790491	0.0306795	0.0797463	-0.401985	0	0	-0.647825	0.17567	-0.157694	0.771969	-0.11927	0.124879	0.562256	1.5708	0	0	0.531286	-0.408043	0.223062	0.804371	1.5708	0	0
23.29	-0.130685	1.37469	-1.34746	0.786436	-0.53222	0.952899	-0.107681	-0.0133009	-0.310049	0.448525	-0.248341	0	0	-0.256924	-0.0800386	0.0325782	0.0769665	-0.40441	0	0	-0.648384	0.176899	-0.156921	0.772009	-0.116179	0.108945	0.564929	1.5708	0	0	0.536725	-0.406739	0.223739	0.800304	1.5708	0	0
23.3	-0.131011	1.37582	-1.3466	0.786512	-0.53291	0.952806	-0.107102	-0.0138435	-0.312145	0.449392	-0.249407	0	0	-0.257487	-0.0800903	0.0334133	0.0742541	-0.405479	0	0	-0.648452	0.177003	-0.15637	0.772357	-0.115174	0.102708	0.566005	1.5708	0	0	0.541699	-0.405859	0.22513	0.796625	1.5708	0	0
23.31	-0.135282	1.3765	-1.34174	0.786636	-0.533576	0.952854	-0.110648	-0.0104518	-0.306783	0.439624	-0.251656	0	0	-0.258319	-0.0809311	0.0345477	0.0717792	-0.40673	0	0	-0.64892	0.17797	-0.155487	0.772167	-0.114473	0.0978456	0.566614	1.5708	0	0	0.546739	-0.40482	0.227375	0.792736	1.5708	0	0
23.32	-0.130032	1.37839	-1.34713	0.786698	-0.534367	0.952557	-0.104637	-0.01648	-0.318281	0.454121	-0.251011	0	0	-0.258365	-0.0792983	0.034719	0.0698874	-0.40752	0	0	-0.647755	0.176428	-0.155431	0.772286	-0.11342	0.0927753	0.566668	1.5708	0	0	0.551008	-0.404382	0.230218	0.789501	1.5708	0	0
23.33	-0.135218	1.38007	-1.3418	0.786801	-0.535107	0.952529	-0.106781	-0.0132899	-0.312743	0.444939	-0.251722	0	0	-0.257851	-0.0799653	0.0357793	0.068399	-0.408228	0	0	-0.647264	0.177275	-0.154981	0.773266	-0.112184	0.0877717	0.56696	1.5708	0	0	0.554269	-0.404022	0.231989	0.787405	1.5708	0	0
23.34	-0.13493	1.3821	-1.34273	0.786802	-0.535968	0.952298	-0.103358	-0.0160942	-0.317957	0.450573	-0.251847	0	0	-0.257893	-0.0794521	0.0359615	0.0656057	-0.409217	0	0	-0.645987	0.176471	-0.154649	0.773182	-0.110729	0.0831776	0.567202	1.5708	0	0	0.556917	-0.403987	0.234132	0.78526	1.5708	0	0
23.35	-0.138066	1.38402	-1.34014	0.78683	-0.536822	0.952096	-0.101594	-0.0167333	-0.320358	0.452042	-0.250311	0	0	-0.257945	-0.0798031	0.0362441	0.0623642	-0.410384	0	0	-0.644774	0.176339	-0.154199	0.773336	-0.1096	0.0794666	0.567555	1.5708	0	0	0.559057	-0.404224	0.236329	0.7834	1.5708	0	0
23.36	-0.143126	1.38574	-1.3356	0.786902	-0.537649	0.951903	-0.100794	-0.016045	-0.320266	0.452917	-0.247255	0	0	-0.258221	-0.0802774	0.0370065	0.0593495	-0.411471	0	0	-0.64355	0.176542	-0.153587	0.773324	-0.10889	0.0769734	0.56764	1.5708	0	0	0.561043	-0.404542	0.239064	0.78129	1.5708	0	0
23.37	-0.178718	1.36809	-1.29493	0.787579	-0.538516	0.954078	-0.206462	0.026693	-0.211182	0.132979	-0.538622	0	0	-0.273903	-0.0937999	0.0195545	0.0679987	-0.455377	0	0	-0.661416	0.190153	-0.150687	0.776914	-0.109774	0.0753844	0.567741	1.5708	0	0	0.566451	-0.404438	0.245175	0.777861	1.5708	0	0
23.38	-0.14852	1.38833	-1.33191	0.786896	-0.539424	0.951681	-0.100733	-0.0155655	-0.319926	0.451852	-0.240059	0	0	-0.258881	-0.0800395	0.0373454	0.057852	-0.406718	0	0	-0.642108	0.175282	-0.149577	0.771436	-0.110971	0.0703859	0.572285	1.5708	0	0	0.566386	-0.403311	0.247131	0.775772	1.5708	0	0
23.39	-0.150692	1.38906	-1.33053	0.786964	-0.540311	0.951619	-0.10171	-0.0154117	-0.320027	0.449761	-0.243111	0	0	-0.259534	-0.0797766	0.036205	0.0585661	-0.407317	0	0	-0.641785	0.175136	-0.149128	0.772048	-0.111349	0.0719734	0.571607	1.5708	0	0	0.566226	-0.403114	0.246447	0.775554	1.5708	0	0
23.4	-0.154295	1.39039	-1.32807	0.78705	-0.541154	0.951486	-0.101447	-0.0153541	-0.319561	0.448991	-0.242059	0	0	-0.259378	-0.0795805	0.0357791	0.0588222	-0.404919	0	0	-0.64077	0.174976	-0.147944	0.772153	-0.111893	0.0710067	0.572178	1.5708	0	0	0.5663	-0.402578	0.246553	0.775458	1.5708	0	0
23.41	-0.155457	1.3927	-1.32851	0.787093	-0.542064	0.951217	-0.0974372	-0.0183928	-0.324193	0.45638	-0.239867	0	0	-0.258759	-0.0786307	0.0361429	0.057518	-0.403617	0	0	-0.638568	0.173899	-0.146551	0.770782	-0.112412	0.0688079	0.573372	1.5708	0	0	0.566191	-0.401711	0.247238	0.775374	1.5708	0	0
23.42	-0.16273	1.39398	-1.32238	0.787195	-0.542949	0.951177	-0.0993993	-0.015459	-0.318541	0.449348	-0.239456	0	0	-0.25871	-0.0792486	0.0370241	0.0564855	-0.403741	0	0	-0.637572	0.174515	-0.1452	0.769045	-0.112773	0.0671434	0.574995	1.5708	0	0	0.565521	-0.400966	0.247529	0.775736	1.5708	0	0
23.43	-0.168116	1.395	-1.31841	0.787259	-0.543887	0.951065	-0.0998288	-0.0146566	-0.316859	0.447731	-0.239372	0	0	-0.259132	-0.0795665	0.037071	0.0556482	-0.40366	0	0	-0.636698	0.17479	-0.144065	0.767726	-0.112732	0.0640585	0.57715	1.5708	0	0	0.564057	-0.400478	0.24754	0.776359	1.5708	0	0
23.44	-0.173694	1.39626	-1.31438	0.787328	-0.544811	0.950942	-0.0996487	-0.0141134	-0.315374	0.446929	-0.23934	0	0	-0.259368	-0.0797283	0.0371076	0.054805	-0.403386	0	0	-0.635537	0.17509	-0.143064	0.765797	-0.112505	0.0605427	0.580134	1.5708	0	0	0.56197	-0.399992	0.247151	0.776963	1.5708	0	0
23.45	-0.179476	1.39765	-1.31024	0.787456	-0.545733	0.950823	-0.0992039	-0.0138176	-0.314152	0.446334	-0.239277	0	0	-0.259534	-0.0796659	0.037071	0.0540605	-0.40306	0	0	-0.634216	0.175545	-0.141914	0.763208	-0.112591	0.0581437	0.583298	1.5708	0	0	0.559425	-0.399436	0.246793	0.77774	1.5708	0	0
23.46	-0.185452	1.39889	-1.30588	0.787628	-0.546642	0.950709	-0.0988405	-0.0135554	-0.313284	0.446056	-0.239107	0	0	-0.259847	-0.0795926	0.0371291	0.0532343	-0.402634	0	0	-0.63301	0.17626	-0.140575	0.760107	-0.113098	0.0564433	0.58717	1.5708	0	0	0.556597	-0.398839	0.246684	0.778707	1.5708	0	0
23.47	-0.185489	1.40126	-1.30811	0.78763	-0.54769	0.950356	-0.0922839	-0.0192733	-0.32343	0.460919	-0.236613	0	0	-0.259668	-0.0781981	0.0364542	0.0519287	-0.401845	0	0	-0.630625	0.174993	-0.138842	0.754665	-0.114026	0.0532588	0.593758	1.5708	0	0	0.553606	-0.398652	0.248168	0.780096	1.5708	0	0
23.48	-0.189332	1.40309	-1.30593	0.787674	-0.54868	0.950172	-0.0904672	-0.0202755	-0.325135	0.463592	-0.234967	0	0	-0.259623	-0.0777938	0.0364588	0.050865	-0.401378	0	0	-0.628749	0.174687	-0.137853	0.750158	-0.114386	0.0511857	0.598591	1.5708	0	0	0.550131	-0.398806	0.249135	0.781395	1.5708	0	0
23.49	-0.193473	1.405	-1.30337	0.787775	-0.549665	0.949992	-0.0889167	-0.0210822	-0.325968	0.465162	-0.233451	0	0	-0.259594	-0.07739	0.0365624	0.0494365	-0.400921	0	0	-0.62688	0.1745	-0.137178	0.744851	-0.114538	0.0486006	0.604198	1.5708	0	0	0.545975	-0.399369	0.250358	0.783486	1.5708	0	0
